<?xml version="1.0" encoding="UTF-8" standalone="no"?>
<!-- Created with Inkscape (http://www.inkscape.org/) -->

<svg
   xmlns:dc="http://purl.org/dc/elements/1.1/"
   xmlns:cc="http://creativecommons.org/ns#"
   xmlns:rdf="http://www.w3.org/1999/02/22-rdf-syntax-ns#"
   xmlns:svg="http://www.w3.org/2000/svg"
   xmlns="http://www.w3.org/2000/svg"
   xmlns:sodipodi="http://sodipodi.sourceforge.net/DTD/sodipodi-0.dtd"
   xmlns:inkscape="http://www.inkscape.org/namespaces/inkscape"
   width="744.09448819"
   height="1052.3622047"
   id="svg2"
   version="1.1"
   inkscape:version="0.48.4 r9939"
   sodipodi:docname="logo-white.svg">
  <defs
     id="defs4" />
  <sodipodi:namedview
     id="base"
     pagecolor="#ffffff"
     bordercolor="#666666"
     borderopacity="1.0"
     inkscape:pageopacity="0.0"
     inkscape:pageshadow="2"
     inkscape:zoom="1.4142136"
     inkscape:cx="168.83311"
     inkscape:cy="876.40146"
     inkscape:document-units="px"
     inkscape:current-layer="layer1"
     showgrid="true"
     showguides="true"
     inkscape:guide-bbox="true"
     inkscape:window-width="1110"
     inkscape:window-height="1049"
     inkscape:window-x="0"
     inkscape:window-y="0"
     inkscape:window-maximized="0">
    <inkscape:grid
       type="xygrid"
       id="grid2985"
       empspacing="5"
       visible="true"
       enabled="true"
       snapvisiblegridlinesonly="true" />
  </sodipodi:namedview>
  <metadata
     id="metadata7">
    <rdf:RDF>
      <cc:Work
         rdf:about="">
        <dc:format>image/svg+xml</dc:format>
        <dc:type
           rdf:resource="http://purl.org/dc/dcmitype/StillImage" />
        <dc:title></dc:title>
      </cc:Work>
    </rdf:RDF>
  </metadata>
  <g
     inkscape:label="Layer 1"
     inkscape:groupmode="layer"
     id="layer1">
    <rect
       style="fill:#91bf72;fill-opacity:1"
       id="rect3926"
       width="80"
       height="80"
       x="30"
       y="152.36218"
       ry="13.333333" />
    <g
       transform="matrix(2.0929316,0,0,2.1767963,-43.495222,-240.45026)"
       style="font-size:40px;font-style:normal;font-weight:normal;line-height:125%;letter-spacing:0px;word-spacing:0px;fill:#ffffff;fill-opacity:1;stroke:none;font-family:Sans"
       id="flowRoot3928">
      <path
         d="m 61.652344,188.5145 0,3.39844 c -1.015642,-0.52082 -2.070328,-0.91144 -3.164063,-1.17188 -1.093763,-0.2604 -2.226575,-0.39061 -3.398437,-0.39062 -1.783864,1e-5 -3.125008,0.27345 -4.023438,0.82031 -0.885423,0.54689 -1.328131,1.3672 -1.328125,2.46094 -6e-6,0.83334 0.319005,1.4909 0.957031,1.97265 0.638014,0.46877 1.920565,0.91798 3.847657,1.34766 l 1.230468,0.27344 c 2.552069,0.54688 4.361963,1.32162 5.429688,2.32421 1.080711,0.9896 1.621075,2.37631 1.621094,4.16016 -1.9e-5,2.03125 -0.80731,3.63933 -2.421875,4.82422 -1.601578,1.18489 -3.808607,1.77734 -6.621094,1.77734 -1.171884,0 -2.395841,-0.11719 -3.671875,-0.35156 -1.263026,-0.22135 -2.59766,-0.5599 -4.003906,-1.01562 l 0,-3.71094 c 1.328121,0.69011 2.636714,1.21094 3.925781,1.5625 1.289055,0.33854 2.565096,0.50781 3.828125,0.50781 1.692697,0 2.994779,-0.28646 3.90625,-0.85937 0.911444,-0.58594 1.367172,-1.40625 1.367187,-2.46094 -1.5e-5,-0.97656 -0.332046,-1.72526 -0.996093,-2.2461 -0.651055,-0.52082 -2.089856,-1.02212 -4.316407,-1.5039 l -1.25,-0.29297 c -2.226568,-0.46874 -3.83464,-1.18489 -4.824218,-2.14844 -0.989586,-0.97655 -1.484378,-2.31118 -1.484375,-4.0039 -3e-6,-2.05728 0.729163,-3.64582 2.1875,-4.76563 1.458327,-1.11977 3.528638,-1.67966 6.210937,-1.67969 1.328113,3e-5 2.578112,0.0977 3.75,0.29297 1.17186,0.19534 2.252588,0.4883 3.242188,0.87891"
         style="fill:#ffffff;fill-opacity:1"
         id="path4016" />
    </g>
    <flowRoot
       xml:space="preserve"
       id="flowRoot3936"
       style="fill:black;stroke:none;stroke-opacity:1;stroke-width:1px;stroke-linejoin:miter;stroke-linecap:butt;fill-opacity:1;font-family:Sans;font-style:normal;font-weight:normal;font-size:40px;line-height:125%;letter-spacing:0px;word-spacing:0px"><flowRegion
         id="flowRegion3938"><rect
           id="rect3940"
           width="297.995"
           height="42.426407"
           x="88.893425"
           y="170.49901" /></flowRegion><flowPara
         id="flowPara3942"></flowPara></flowRoot>    <g
       transform="translate(3.34375,5.7734662)"
       style="font-size:40px;font-style:normal;font-weight:normal;line-height:125%;letter-spacing:0px;word-spacing:0px;fill:#000000;fill-opacity:1;stroke:none;font-family:Sans"
       id="flowRoot3958">
      <g
         transform="translate(-1.5625,-3.40625)"
         style="font-size:48px;line-height:125%;fill:#000000;font-family:Sans;fill-opacity:1"
         id="flowRoot4033">
        <path
           d="m 124.74219,183.71896 4.3125,0 0,26.25 -4.3125,0 0,-26.25 m 0,-10.21875 4.3125,0 0,5.46094 -4.3125,0 0,-5.46094"
           style="fill:#000000;fill-opacity:1"
           id="path4042" />
        <path
           d="m 155.32812,187.70333 0,-14.20312 4.3125,0 0,36.46875 -4.3125,0 0,-3.9375 c -0.90627,1.5625 -2.0547,2.72656 -3.44531,3.49219 -1.37501,0.75 -3.03126,1.125 -4.96875,1.125 -3.17188,0 -5.75782,-1.26563 -7.75781,-3.79688 -1.98438,-2.53124 -2.97657,-5.85936 -2.97656,-9.98437 -1e-5,-4.12499 0.99218,-7.45311 2.97656,-9.98438 1.99999,-2.53122 4.58593,-3.79685 7.75781,-3.79687 1.93749,2e-5 3.59374,0.38284 4.96875,1.14843 1.39061,0.75003 2.53904,1.90628 3.44531,3.46875 m -14.69531,9.16407 c 0,3.17188 0.64843,5.66407 1.94531,7.47656 1.31249,1.79688 3.10937,2.69532 5.39063,2.69531 2.28123,1e-5 4.07811,-0.89843 5.39062,-2.69531 1.31248,-1.81249 1.96873,-4.30468 1.96875,-7.47656 -2e-5,-3.17186 -0.65627,-5.65623 -1.96875,-7.45313 -1.31251,-1.81248 -3.10939,-2.71872 -5.39062,-2.71875 -2.28126,3e-5 -4.07814,0.90627 -5.39063,2.71875 -1.29688,1.7969 -1.94531,4.28127 -1.94531,7.45313"
           style="fill:#000000;fill-opacity:1"
           id="path4044" />
        <path
           d="m 168.07812,199.60958 0,-15.89062 4.3125,0 0,15.72656 c 0,2.48439 0.48437,4.35157 1.45313,5.60156 0.96874,1.23438 2.42186,1.85157 4.35937,1.85157 2.32811,0 4.16405,-0.74219 5.50782,-2.22657 1.35935,-1.48436 2.03904,-3.5078 2.03906,-6.07031 l 0,-14.88281 4.3125,0 0,26.25 -4.3125,0 0,-4.03125 c -1.0469,1.59375 -2.26564,2.78125 -3.65625,3.5625 -1.37502,0.76562 -2.97658,1.14844 -4.80469,1.14844 -3.01563,0 -5.30469,-0.9375 -6.86719,-2.8125 -1.5625,-1.875 -2.34375,-4.61718 -2.34375,-8.22657 m 10.85157,-16.52343 0,0"
           style="fill:#000000;fill-opacity:1"
           id="path4046" />
        <path
           d="m 214.20312,187.75021 c -0.48439,-0.28123 -1.01564,-0.48435 -1.59375,-0.60938 -0.56251,-0.1406 -1.18751,-0.21091 -1.875,-0.21093 -2.43751,2e-5 -4.31251,0.79689 -5.625,2.39062 -1.29688,1.57815 -1.94532,3.85158 -1.94531,6.82031 l 0,13.82813 -4.33594,0 0,-26.25 4.33594,0 0,4.07812 c 0.90624,-1.59372 2.08593,-2.77341 3.53906,-3.53906 1.45312,-0.78122 3.21874,-1.17185 5.29688,-1.17187 0.29686,2e-5 0.62498,0.0235 0.98437,0.0703 0.35936,0.0313 0.7578,0.086 1.19532,0.16406 l 0.0234,4.42969"
           style="fill:#000000;fill-opacity:1"
           id="path4048" />
        <path
           d="m 240.19531,195.76583 0,2.10938 -19.82812,0 c 0.18749,2.96876 1.07811,5.23438 2.67187,6.79687 1.60937,1.54688 3.84374,2.32032 6.70313,2.32032 1.65623,0 3.25779,-0.20312 4.80468,-0.60938 1.56248,-0.40624 3.10936,-1.01562 4.64063,-1.82812 l 0,4.07812 c -1.5469,0.65625 -3.13284,1.15625 -4.75781,1.5 -1.62502,0.34375 -3.27346,0.51563 -4.94532,0.51563 -4.18751,0 -7.50782,-1.21875 -9.96093,-3.65625 -2.43751,-2.4375 -3.65626,-5.73437 -3.65625,-9.89063 -1e-5,-4.29686 1.15624,-7.7031 3.46875,-10.21875 2.32811,-2.53122 5.46092,-3.79685 9.39843,-3.79687 3.53124,2e-5 6.3203,1.14065 8.36719,3.42187 2.06248,2.26565 3.09373,5.35158 3.09375,9.25781 m -4.3125,-1.26562 c -0.0313,-2.35936 -0.69533,-4.24217 -1.99219,-5.64844 -1.28126,-1.40623 -2.98439,-2.10935 -5.10937,-2.10937 -2.40626,2e-5 -4.33595,0.67971 -5.78906,2.03906 -1.43751,1.35939 -2.26564,3.27346 -2.48438,5.74219 l 15.375,-0.0234"
           style="fill:#000000;fill-opacity:1"
           id="path4050" />
        <path
           d="m 269.72656,195.76583 0,2.10938 -19.82812,0 c 0.18749,2.96876 1.07811,5.23438 2.67187,6.79687 1.60937,1.54688 3.84374,2.32032 6.70313,2.32032 1.65623,0 3.25779,-0.20312 4.80468,-0.60938 1.56248,-0.40624 3.10936,-1.01562 4.64063,-1.82812 l 0,4.07812 c -1.5469,0.65625 -3.13284,1.15625 -4.75781,1.5 -1.62502,0.34375 -3.27346,0.51563 -4.94532,0.51563 -4.18751,0 -7.50782,-1.21875 -9.96093,-3.65625 -2.43751,-2.4375 -3.65626,-5.73437 -3.65625,-9.89063 -1e-5,-4.29686 1.15624,-7.7031 3.46875,-10.21875 2.32811,-2.53122 5.46092,-3.79685 9.39843,-3.79687 3.53124,2e-5 6.3203,1.14065 8.36719,3.42187 2.06248,2.26565 3.09373,5.35158 3.09375,9.25781 m -4.3125,-1.26562 c -0.0313,-2.35936 -0.69533,-4.24217 -1.99219,-5.64844 -1.28126,-1.40623 -2.98439,-2.10935 -5.10937,-2.10937 -2.40626,2e-5 -4.33595,0.67971 -5.78906,2.03906 -1.43751,1.35939 -2.26564,3.27346 -2.48438,5.74219 l 15.375,-0.0234"
           style="fill:#000000;fill-opacity:1"
           id="path4052" />
        <path
           d="m 277.41406,204.01583 4.94531,0 0,5.95313 -4.94531,0 0,-5.95313"
           style="fill:#000000;fill-opacity:1"
           id="path4054" />
      </g>
    </g>
  </g>
</svg>
